<svg width="114" height="40" fill="none" xmlns="http://www.w3.org/2000/svg"><path fill-rule="evenodd" clip-rule="evenodd" d="M15.52.057h-.17L0 1.72v28.775l15.35 9.344 15.352-9.344V1.72L15.52.057zm61.498 1.565h-1.93v13.11h1.93V1.621zm-36.156.01v5.136a3.976 3.976 0 012.849-1.23 3.387 3.387 0 012.614 1.007 3.55 3.55 0 011.015 2.662v5.556h-1.973V9.466a1.984 1.984 0 00-.41-1.44 1.899 1.899 0 00-1.289-.718h-.316a3.081 3.081 0 00-2.448 1.5v5.955H38.9V1.633h1.963zm36.156 28.852h-1.74v-1.425a4.061 4.061 0 01-3.366 1.662c-2.437-.168-4.33-2.239-4.33-4.736 0-2.498 1.893-4.569 4.33-4.737a3.98 3.98 0 013.165 1.402v-5.33h1.941v13.164zm-29.952-1.425c.197-.008.392-.044.58-.107v1.435a3.38 3.38 0 01-1.245.226 1.758 1.758 0 01-1.762-1.079 5.035 5.035 0 01-3.313 1.166c-1.593 0-3.07-.896-3.07-2.752 0-2.298 2.11-3.01 3.914-3.01.77.013 1.537.103 2.29.27v-.324c0-1.079-.802-1.91-2.31-1.91a7.682 7.682 0 00-3.166.69V21.83a10.56 10.56 0 013.365-.593c2.49 0 4.02 1.209 4.02 3.938v3.237a.592.592 0 00.13.429c.096.12.236.194.387.208h.18v.01zM40.27 27.84c.027.389.205.75.495 1.004.289.253.666.378 1.046.345h.116a3.537 3.537 0 002.542-1.079v-1.532a10.039 10.039 0 00-1.91-.227c-1.055 0-2.278.356-2.278 1.49h-.01zm15.752-5.902a5.183 5.183 0 00-2.712-.69h-.369a4.514 4.514 0 00-3.18 1.471 4.722 4.722 0 00-1.23 3.341v.442c.164 2.498 2.273 4.39 4.716 4.23 1.004.024 2-.187 2.912-.615v-1.845a5.185 5.185 0 01-2.564.69 2.885 2.885 0 01-2.657-1.426 3.024 3.024 0 010-3.07 2.884 2.884 0 012.657-1.427c.865-.003 1.71.26 2.427.755v-1.856zM66.15 29.06a2.08 2.08 0 00.58-.108v1.435c-.397.153-.82.23-1.244.226a1.758 1.758 0 01-1.762-1.079 5.035 5.035 0 01-3.313 1.166c-1.593 0-3.07-.896-3.07-2.752 0-2.298 2.11-3.01 3.914-3.01.77.013 1.537.103 2.29.27v-.324c0-1.079-.802-1.91-2.311-1.91a7.682 7.682 0 00-3.165.69V21.83c1.084-.379 2.22-.58 3.365-.593 2.49 0 4.02 1.209 4.02 3.938v3.237a.592.592 0 00.129.429c.097.12.237.194.388.208h.18v.01zm-6.296-.212a1.468 1.468 0 01-.498-1.008h.021c0-1.133 1.16-1.489 2.279-1.489.642.015 1.281.09 1.91.227v1.532a3.537 3.537 0 01-2.543 1.079h-.116a1.404 1.404 0 01-1.053-.34zm9.472-2.918c0-1.644 1.304-2.977 2.912-2.977l.021.054c1.214 0 2.314.731 2.806 1.866v2.158a3.015 3.015 0 01-2.827 1.877c-1.608 0-2.912-1.333-2.912-2.978zm14.022-4.682c3.492 0 4.705 2.892 4.135 5.492h-6.562c.222 1.618 1.762 2.276 3.366 2.276a6.326 6.326 0 002.785-.636v1.726a7.39 7.39 0 01-3.165.615c-2.67 0-5.012-1.532-5.012-4.769a4.572 4.572 0 011.145-3.268 4.37 4.37 0 013.076-1.469h.232v.033zm-2.48 3.927c.101-1.351 1.253-2.365 2.575-2.265h.042c.62-.057 1.234.17 1.675.62.442.449.666 1.075.614 1.71H80.87v-.065zm8.62 5.287v-8.966h1.74v1.079a3.983 3.983 0 012.934-1.37 3.001 3.001 0 012.785 1.51 4.311 4.311 0 013.07-1.435 3.192 3.192 0 012.489 1.01c.647.69.971 1.631.887 2.583v5.61h-2.004v-5.556a1.74 1.74 0 00-.366-1.262 1.665 1.665 0 00-1.132-.626h-.275a2.936 2.936 0 00-2.184 1.208v6.237H95.43v-5.557a1.742 1.742 0 00-.38-1.266 1.666 1.666 0 00-1.15-.611h-.21a3.153 3.153 0 00-2.333 1.392v6.074h-1.825l-.042-.054zm24.488-8.988h-2.005l-2.648 6.798-3.018-6.787h-2.11l4.221 9.063-.18.454c-.517 1.36-1.234 2.05-2.184 2.05a2.96 2.96 0 01-.897-.13v1.694c.38.096.77.147 1.161.151 1.329 0 2.585-.744 3.534-3.086l4.126-10.207zM52.689 5.787V2.55l-1.962.464v2.719h-1.583V7.49h1.646v4.5c-.067.826.234 1.64.82 2.213a2.653 2.653 0 002.197.743 7.014 7.014 0 002.332-.378v-1.726a4.647 4.647 0 01-1.783.356c-1.14 0-1.667-.389-1.667-1.575v-4.11h3.165V5.787H52.69zm5.697 8.966V5.754h1.752v1.08a3.983 3.983 0 012.922-1.382 2.998 2.998 0 012.743 1.435c.793-.882 1.9-1.4 3.07-1.435.94-.037 1.85.347 2.491 1.052.64.704.949 1.66.843 2.617v5.62h-2.004V9.186a1.743 1.743 0 00-.366-1.262 1.668 1.668 0 00-1.132-.626h-.243a2.937 2.937 0 00-2.184 1.209v6.236h-2.005V9.185a1.742 1.742 0 00-.365-1.262 1.667 1.667 0 00-1.133-.626h-.242A3.153 3.153 0 0060.2 8.69v6.074h-1.815v-.01zm-29.689 14.55l.01-.006-.01.021v-.015zm0-11.983v11.983l-13.346 8.13-13.346-8.115V17.515l13.283 8.092v1.424l-9.105-5.503v1.414l9.157 5.621v1.5l-9.147-5.567v1.456l9.158 5.621 9.232-5.653v-6.107l4.114-2.492zm.01-1.542l-3.67 2.158-1.689 1.079-8.04-4.931v1.413l6.848 4.23-.148.097-1.055.582-5.665-3.452v1.445l4.473 2.72-1.055.722-3.376-2.05v1.414l2.215 1.338-2.247 1.36-13.188-8.04 13.2-8.134 13.399 8.049zm-13.42-9.506l13.42 8.081V3.563L15.362 2.13 2.015 3.564v10.79l13.273-8.082z" fill="#231F20"/></svg> 102.507 22.2901C103.154 22.9792 103.478 23.9213 103.394 24.8732V30.4837H101.39V24.9271C101.437 24.4734 101.306 24.0191 101.024 23.6647C100.743 23.3104 100.336 23.0852 99.8917 23.039H99.6174C98.7512 23.0941 97.9525 23.536 97.4335 24.2474V30.4837H95.4289V24.9271C95.4728 24.47 95.3357 24.0139 95.0481 23.6611C94.7606 23.3082 94.3467 23.088 93.8991 23.0497H93.6881C92.7466 23.1344 91.8915 23.6449 91.3564 24.4416V30.5161H89.5312L89.489 30.4621ZM113.977 21.4745H111.972L109.324 28.2718L106.306 21.4853H104.196L108.417 30.5484L108.237 31.0016C107.72 32.3611 107.003 33.0516 106.053 33.0516C105.75 33.0548 105.447 33.0112 105.156 32.9221V34.6161C105.536 34.7125 105.926 34.7632 106.317 34.7671C107.646 34.7671 108.902 34.0226 109.851 31.6813L113.977 21.4745ZM52.689 5.78658V2.54974L50.7266 3.01369V5.73264H49.144V7.49132H50.7899V11.9905C50.7231 12.817 51.0244 13.6301 51.61 14.2038C52.1955 14.7775 53.0028 15.0505 53.8073 14.9468C54.5996 14.9535 55.3875 14.8259 56.139 14.5692V12.8429C55.5727 13.0781 54.9672 13.199 54.356 13.199C53.2165 13.199 52.689 12.8105 52.689 11.6237V7.5129H55.8541V5.78658H52.689ZM58.3862 14.7526V5.75421H60.1376V6.83316C60.8811 5.97655 61.9403 5.476 63.0601 5.45211C64.1624 5.38099 65.2146 5.93142 65.8032 6.88711C66.5958 6.00534 67.7028 5.48794 68.8734 5.45211C69.8138 5.41462 70.7233 5.79859 71.364 6.50353C72.0046 7.20846 72.3126 8.16418 72.2073 9.12053V14.7418H70.2028V9.18527C70.2499 8.73151 70.1184 8.27721 69.8373 7.92287C69.5561 7.56853 69.1485 7.34334 68.7046 7.29711H68.4619C67.5957 7.35228 66.797 7.7942 66.278 8.50553V14.7418H64.2734V9.18527C64.3206 8.73151 64.1891 8.27721 63.9079 7.92287C63.6268 7.56853 63.2191 7.34334 62.7752 7.29711H62.5326C61.5911 7.38181 60.736 7.89229 60.2009 8.68895V14.7634H58.3862V14.7526ZM28.6972 29.3033L28.7078 29.2968L28.6972 29.3184V29.3033ZM28.6972 17.3205V29.3033L15.3509 37.4321L2.00459 29.3184V17.5147L15.2876 25.6068V27.0311L6.18257 21.5284V22.9418L15.3404 28.5632V30.0629L6.19312 24.4955V25.9521L15.3509 31.5734L24.5826 25.9197V19.8129L28.6972 17.3205ZM28.7078 15.7776L25.0362 17.9355L23.3482 19.0145L15.3087 14.0837V15.4971L22.156 19.7266L22.0083 19.8237L20.9532 20.4063L15.2876 16.9537V18.3995L19.761 21.1184L18.706 21.8413L15.3298 19.7913V21.2047L17.5454 22.5426L15.2982 23.9021L2.11009 15.864L15.3087 7.72869L28.7078 15.7776ZM15.2876 6.27211L28.7078 14.3534V3.56395L15.3615 2.12895L2.01514 3.56395V14.3534L15.2876 6.27211Z" fill="#231F20"/>
</svg>
