<svg width="458" height="352" fill="none" xmlns="http://www.w3.org/2000/svg"><path fill-rule="evenodd" clip-rule="evenodd" d="M181.774 56.09l-2.845 4.877H176.2l-.87 1.434h2.757l-6.069 10.383c-1.277 2.208-.376 4.246 2.062 4.246 1.223 0 2.538-.637 3.853-1.621l-.778 1.334h3.046l4.588-7.887c4.644-5.767 6.706-5.02 5.399-2.81l-3.92 6.74c-1.278 2.21-.377 4.248 2.061 4.248 1.796 0 3.788-1.37 5.693-3.205.146 1.857 1.667 3.205 4.09 3.205 3.423 0 6.82-2.64 9.316-5.508-.197-.403-.719-.861-1.126-1.033l-.203.226c-2.178 2.497-4.964 4.475-7.082 4.475-1.86 0-2.964-1.146-1.57-3.555l.29-.52c1.946.805 5.604.431 7.868-3.44l.437-.747c1.625-2.753.058-4.818-2.41-4.818-2.439 0-4.383 1.263-5.66 3.441l-2.93 4.965-.176.2c-2.177 2.494-4.295 4.472-5.631 4.472-.666 0-1.046-.46-.35-1.635l4.355-7.543c1.306-2.265.06-3.9-1.624-3.9-1.307 0-2.702.717-4.21 2.265l4.818-8.289h-3.019l-8.423 14.438-.17.19c-2.176 2.496-4.297 4.474-5.633 4.474-.667 0-1.044-.46-.346-1.635l6.472-11.158h2.467l.872-1.433h-2.496l2.845-4.875-3.019-.001zm-32.309 4.879l2.845-4.875h3.019l-2.846 4.873h2.499l-.872 1.436h-2.465l-6.476 11.158c-.697 1.175-.319 1.635.348 1.635 1.335 0 3.457-1.979 5.633-4.475l.156-.176 1.237-2.09 1.48-2.553c1.742-2.984 3.54-3.9 5.862-3.9 2.846 0 4.529 2.953 2.701 6.08l-2.845 4.846c1.511-.029 3.194-.744 4.558-2.207l.205-.228c.406.172.928.629 1.128 1.033-1.54 1.806-4.384 2.896-6.184 2.896h-.666c-3.269 4.084-8.616 3.341-8.61-.461-1.866 1.769-3.803 3.073-5.557 3.073-2.438 0-3.339-2.038-2.061-4.247l6.068-10.383h-2.757l.87-1.435h2.73zm10.798 5.998c1.028-1.742.562-2.947-.422-3.037-.765-.07-1.843.536-2.77 2.092l-1.451 2.437-2.294 3.928c-1.8 3.097 1.657 3.556 3.079 1.146l.03-.056a1.94 1.94 0 01-.291-1.004c0-.975.783-1.779 1.77-1.779h.145l2.204-3.727zm43.312-.031c1.012-1.744.48-2.661-.489-2.604v.001c-.752.044-1.769.678-2.532 1.97l-1.946 3.357c1.133.402 3.08.46 4.53-1.978l.437-.746zm43.829-8.067c-1.714 1.52-1.858 3.214-.783 4.59l.262.344-.062.087c-1.329 1.856-3.103 4.335-5.048 6.597l.002.003-.203.229c-1.365 1.461-3.046 2.18-4.558 2.209l2.843-4.848c1.83-3.126.147-6.08-2.7-6.08-2.32 0-4.12.918-5.86 3.9l-1.484 2.553-1.238 2.092-.154.176c-2.497 2.84-4.643 4.671-7.025 5.676l6.763-11.414h-1.77c0-1.234-1.276-2.87-3.164-2.87-1.624 0-3.89 1.265-5.168 3.444l-4.238 7.227c-1.278 2.208-.378 4.246 2.06 4.246.843 0 1.86-.374 2.877-1.004l-.843 1.404c-4.064 1.233-6.62 2.868-6.62 5.106 0 2.869 4.442 3.471 6.62-.2l2.292-3.93c2.416-.743 4.783-2.147 7.24-4.464-.021 3.817 5.337 4.567 8.61.476h.668c1.8 0 4.645-1.089 6.184-2.896 1.449-1.664 2.58-3.155 4.99-6.395l.405.489c.377.487.525 1.09.175 1.691l-3.193 5.479c-1.28 2.21-.379 4.246 2.061 4.246 1.53 0 3.204-.995 4.842-2.422-.05 1.386.887 2.422 2.619 2.422.84 0 1.857-.373 2.874-1.004l-.842 1.402c-4.065 1.233-6.616 2.868-6.616 5.106 0 2.869 4.44 3.47 6.616-.2l2.292-3.93c2.46-.758 4.87-2.206 7.377-4.599.136 1.868 1.658 3.225 4.09 3.225 2.458 0 4.899-1.363 7.004-3.19-.117 3.905 5.31 4.703 8.612.578h.668c.945 0 2.175-.308 3.357-.853-.813 2.073-.066 3.465 1.661 3.465 1.656 0 3.513-1.492 4.964-2.868-.29 1.605.667 2.868 2.584 2.868 2.496 0 5.37-2.637 7.868-5.506l-.002-.002c1.355-1.544 2.583-3.176 3.57-4.486.26-.346.504-.669.728-.962-.4 1.04-.594 2.359-.784 3.652-.375 2.555-.736 5.008-2.642 5.008-1.016 0-1.42-1.09-1.42-1.09l-1.89.975s.551 2.412 3.31 2.412c.268 0 .512-.026.774-.053l.066-.007c.015 0 .03-.007.046-.013l.016-.008.019-.005.01-.001c3.076-.4 6.124-2.81 8.388-5.42-.173-.459-.696-.918-1.13-1.034l-.203.229a18.85 18.85 0 01-3.63 3.24c.375-1.114.572-2.461.785-3.918.331-2.258.699-4.778 1.829-7.096l-2.264-1.205c-.231.313-.512.701-.835 1.146-1.423 1.963-3.646 5.03-5.871 7.602v.002l-.203.229c-2.176 2.496-4.295 4.472-5.631 4.472-.667 0-1.045-.459-.347-1.634l6.444-11.158h-3.02l-5.37 9.265c-2.293 2.064-4.062 3.212-4.644 2.953-.7-.291-.101-1.276.291-1.92l.032-.053.055-.091 5.893-10.152h-3.02l-4.734 8.092-.199.226c-1.364 1.463-3.047 2.18-4.558 2.21l2.845-4.849c1.828-3.127.15-6.08-2.699-6.08-2.323 0-4.123.918-5.864 3.903l-1.482 2.55-1.237 2.09-.155.178c-2.176 2.496-4.964 4.473-7.083 4.473-1.858 0-2.96-1.146-1.567-3.555l.29-.518c1.944.804 5.604.43 7.867-3.443l.438-.746c1.623-2.754.058-4.819-2.41-4.819-2.44 0-4.387 1.265-5.663 3.444l-2.926 4.965-.175.197c-2.499 2.84-4.645 4.673-7.028 5.678l6.764-11.416h-1.772c0-1.234-1.277-2.868-3.164-2.868-1.625 0-3.889 1.263-5.167 3.442l-2.896 4.937-.008-.004-.203.23c-2.176 2.495-4.298 4.474-5.634 4.474-.667 0-1.042-.46-.346-1.635l3.018-5.22c1.045-1.807.551-2.87-.437-4.046l-1.683-2.01c-.435-.545-.435-1.146.175-1.72l-1.568-1.694zm-9.87 8.098c1.027-1.742.56-2.948-.424-3.038v.001c-.764-.07-1.84.536-2.768 2.092l-1.453 2.437-2.292 3.928c-1.8 3.097 1.656 3.556 3.078 1.146l.028-.056a1.949 1.949 0 01-.29-1.004c0-.975.784-1.779 1.77-1.779h.147l2.204-3.727zm49.734-3.038c.984.09 1.453 1.296.426 3.038l-2.206 3.727h-.147c-.986 0-1.768.804-1.768 1.779 0 .371.116.716.289 1.004l-.03.056c-1.421 2.41-4.875 1.951-3.075-1.146l2.292-3.928 1.451-2.437c.927-1.556 2.003-2.162 2.768-2.092v-.001zm-11.215 3.007c1.012-1.743.483-2.659-.485-2.602v.001c-.752.044-1.77.678-2.532 1.97l-1.948 3.355c1.133.402 3.079.46 4.53-1.978l.435-.746zm-52.888-2.401c1.023-.006 1.678.884.845 2.4l-2.292 3.96c-1.83 2.897-3.66 4.3-4.938 4.3-.667 0-1.045-.459-.349-1.634l4.212-7.256c.71-1.217 1.727-1.765 2.522-1.77zm39.768 2.4c.833-1.516.178-2.406-.845-2.4-.795.005-1.812.553-2.522 1.77l-4.21 7.256c-.694 1.175-.318 1.634.349 1.634 1.276 0 3.108-1.403 4.936-4.3l2.292-3.96zM216.75 79.443l-.001.001c-2.29.888-3.017 1.776-3.017 2.55 0 .803 1.016.974 1.654-.144l1.363-2.406h.001v-.001zm38.924.001l.001-.001v.001h-.001zm0 0l-1.361 2.406c-.64 1.118-1.656.947-1.656.144 0-.774.726-1.662 3.017-2.55zM101.025 67.831h28.922v1.95h-28.922v-1.95zm255.952 0h-28.922v1.95h28.922v-1.95z" fill="#766458"/><path fill-rule="evenodd" clip-rule="evenodd" d="M194.824 37.364V45.1h-20.816V.353h20.816v7.67h-13.2v10.804h10.535v7.67h-10.535v10.866l13.2.001zM216.17 45.1v-7.736l-10.597-.001V.353h-7.616V45.1h18.213zm106.53 0v-7.736h-13.201V26.497h10.535v-7.67h-10.535V8.024H322.7V.353h-20.816V45.1H322.7zM297.459.354h-7.551l-6.793 21.605L276.324.354h-7.552v44.747h7.617v-21.99l2.982 11.378h7.425l3.047-11.378v21.99h7.616V.354zm-39.46 7.67h-5.523v29.34H258l-.001-29.34zm7.68-2.939c0-2.622-2.158-4.731-4.698-4.731l-11.424.001c-2.6 0-4.696 2.109-4.696 4.73V40.37c0 2.557 2.096 4.73 4.696 4.73h11.424c2.54 0 4.698-2.173 4.698-4.73V5.085zm-32.708 23.521l7.678-1.79v13.552c0 2.557-2.157 4.73-4.696 4.73h-11.425c-2.6 0-4.695-2.173-4.695-4.73V5.084c0-2.622 2.095-4.73 4.695-4.73h11.423c2.54 0 4.697 2.108 4.697 4.73v9.077l-7.678 1.79V8.023h-5.522v29.34h5.522l.001-8.757zM170.241.354h-7.677l-.57 37.01h-.762L156.344.354h-7.552l-4.76 37.01h-.824l-.635-37.01h-7.616l1.142 44.746h14.533l1.967-18.474 1.968 18.474h14.47L170.241.354z" fill="#81B3D3"/><path fill-rule="evenodd" clip-rule="evenodd" d="M9.673 190.115c.077.078.116.155.116.233.078 0 .155.038.232.116 2.09 2.322 4.452 4.49 7.084 6.503 2.632 1.935 5.652 2.98 9.058 3.135.078 0 .155.04.232.117h.349c.077 0 .155.038.232.116h1.277c.388-.078.736-.155 1.046-.233a9.69 9.69 0 003.484-1.393c1.16-.697 2.051-1.549 2.67-2.555l.233-.465.232-.464c.155-.542.271-1.045.349-1.51.077-.464.116-.89.116-1.277 0-2.09-.93-3.832-2.787-5.226a19.949 19.949 0 00-5.807-3.368 16.789 16.789 0 00-2.439-.696 31.625 31.625 0 00-2.206-.581h-.232c-.078-.077-.155-.116-.232-.116a38.021 38.021 0 01-10.684-4.413c-3.33-2.09-5.613-5.071-6.852-8.942a99.925 99.925 0 01-.697-2.439 27.884 27.884 0 01-.348-2.67 3.415 3.415 0 01-.116-.814v-2.787c.077-.619.193-1.238.348-1.858.24-1.581.63-3.137 1.161-4.645.542-1.548 1.239-2.942 2.09-4.18 2.478-4.104 5.652-7.046 9.523-8.826 3.949-1.781 8.052-2.671 12.31-2.671 1.007 0 2.013.077 3.02.232 1.087.078 2.172.194 3.251.348a39.748 39.748 0 018.245 2.323c2.787 1.084 5.342 2.361 7.665 3.832l-6.387 14.284a44.7 44.7 0 00-6.62-4.064c-2.322-1.162-4.838-1.742-7.548-1.742h-.93c-1.78.232-3.444 1.045-4.993 2.438-1.548 1.316-2.322 2.749-2.322 4.297v.697c.077.232.193.464.348.697.155.542.426 1.045.813 1.51.387.464.813.89 1.277 1.277.852.697 2.09 1.355 3.717 1.974 1.625.542 3.329 1.084 5.11 1.626 1.47.387 2.902.774 4.296 1.161 1.394.31 2.555.62 3.484.93 4.335 1.548 7.587 4.141 9.755 7.78 2.167 3.561 3.29 7.355 3.367 11.38v.581c0 .465-.038.93-.116 1.394v1.277c-.464 4.026-1.78 7.858-3.948 11.497-2.09 3.639-4.916 6.426-8.477 8.362a37.095 37.095 0 01-4.065 1.625 82.275 82.275 0 01-4.18 1.046c-1.15.231-2.314.386-3.484.464a25.465 25.465 0 01-3.368.232h-1.278c-4.645-.154-9.212-1.161-13.703-3.02-4.49-1.935-8.477-4.49-11.96-7.664l9.289-14.865zm215.894-46.246c-6.348 3.484-11.303 8.517-14.864 15.097l-.001-.001a36.878 36.878 0 00-2.555 5.922 43.786 43.786 0 00-1.625 6.039 23.473 23.473 0 00-.465 3.135 39.604 39.604 0 00-.116 3.02c0 6.813 1.858 13.394 5.574 19.742 3.716 6.271 8.826 11.11 15.329 14.516a37.969 37.969 0 007.432 2.903 47.002 47.002 0 007.897 1.394h1.51c.539.077 1.082.116 1.626.116 7.586 0 14.826-2.052 21.716-6.155 6.89-4.18 11.961-10.025 15.212-17.535a36.016 36.016 0 001.51-4.645c.458-1.594.769-3.226.929-4.877.155-.775.233-1.549.233-2.323.077-.852.116-1.665.116-2.439 0-6.424-1.51-12.58-4.529-18.464-3.019-5.961-7.277-10.722-12.774-14.284a39.425 39.425 0 00-8.129-3.948 41.113 41.113 0 00-8.478-2.09c-.929-.078-1.896-.155-2.903-.233a33.727 33.727 0 00-2.787-.116c-6.89 0-13.51 1.742-19.858 5.226zm73.145 70.081v-73.974h19.51l27.871 37.974a37.208 37.208 0 011.974 3.484 53.437 53.437 0 011.974 3.6l1.394 3.02c.464 1.006.929 1.973 1.393 2.902a23.298 23.298 0 00-.348-2.438c-.077-.774-.155-1.587-.232-2.439a91.3 91.3 0 01-.349-4.761c-.08-1.663-.119-3.329-.116-4.994v-36.348h19.393v73.974h-19.393l-28.103-38.206c-.774-.929-1.51-2.013-2.206-3.251a65.905 65.905 0 01-1.974-4.065c-.45-.975-.914-1.943-1.394-2.903-.359-.94-.747-1.87-1.161-2.787.387 2.4.697 4.839.929 7.316.232 2.477.342 4.955.348 7.432v36.464h-19.51zm107.46-73.974L380.74 213.95h19.974l3.832-13.355h28.568l3.716 13.355h20.206l-25.664-73.974h-25.2zm2.672 46.335l7.548-24.503a49.83 49.83 0 00.813-3.252c.316-1.111.587-2.234.812-3.367.077-.155.117-.271.117-.349 0-.154.038-.309.116-.464.077-.465.155-.891.232-1.278.155-.464.271-.89.348-1.277.078.387.155.813.233 1.277.077.388.193.813.348 1.278.242 1.283.513 2.561.813 3.832.376 1.204.763 2.404 1.161 3.6l7.549 24.503h-20.09zm-145.302-.752c.232-.774.426-1.587.58-2.439.233-.851.388-1.703.465-2.555.078-.541.116-1.083.116-1.625.078-.542.116-1.046.116-1.51a8.46 8.46 0 00-.116-1.394v-1.393c-.387-3.33-1.393-6.542-3.02-9.639-1.625-3.097-3.87-5.497-6.735-7.2a30.79 30.79 0 00-2.322-1.045c-.774-.31-1.549-.58-2.323-.813a23.944 23.944 0 00-2.322-.348 11.847 11.847 0 00-2.323-.233c-3.948 0-7.587 1.24-10.916 3.717-3.329 2.477-5.652 5.767-6.968 9.87l-.232.465v.464c-.239.723-.433 1.46-.58 2.207-.155.697-.31 1.432-.465 2.206l-.232 1.626v2.439c0 .232.038.503.116.813.232 4.103 1.47 8.013 3.716 11.729 2.322 3.638 5.497 6.038 9.522 7.2l1.394.464c.464.078.968.155 1.51.232l1.393.233h1.394c4.103 0 7.78-1.2 11.032-3.6 3.329-2.478 5.729-5.768 7.2-9.871zm-94.001 26.533a33.616 33.616 0 0011.845-5.11h.001c4.49-3.252 7.935-7.432 10.335-12.542 2.4-5.11 3.716-10.413 3.949-15.91v-2.903c0-.465-.039-.929-.117-1.393-.309-5.266-1.664-10.375-4.064-15.33-2.4-4.954-5.768-8.941-10.103-11.96a30.337 30.337 0 00-11.264-5.11 72.528 72.528 0 00-12.31-1.742 53.741 53.741 0 00-3.6-.116h-25.084v73.974h23.806c1.24 0 2.479-.039 3.716-.116a80.464 80.464 0 0012.89-1.742zm-20.555-14.749c.232 0 .465.039.697.116h.813c.31 0 .58.04.813.117h3.135c.852-.078 1.665-.155 2.439-.233a30.585 30.585 0 005.922-1.045c1.936-.542 3.678-1.355 5.226-2.439 2.478-1.78 4.297-4.18 5.458-7.2a25.73 25.73 0 001.858-9.638v-.93c0-.309-.038-.619-.116-.928a23.142 23.142 0 00-2.09-8.478c-1.239-2.787-2.942-4.993-5.11-6.62a13.335 13.335 0 00-5.458-2.67 30.665 30.665 0 00-6.039-.813h-7.548v40.761zm-79.91-57.368v73.974h45.406v-16.606H88.934v-12.542h24.039v-15.794H88.934v-12.89h25.548v-16.142H69.076zm282.347 196.383c-.113.291-.17.583-.17.877 0 .718.247 1.269.74 1.649.495.384 1.07.574 1.72.574a2.15 2.15 0 01-.304 1.01 2.92 2.92 0 01-.676.76 4.517 4.517 0 01-.857.539 9.123 9.123 0 01-.828.352l1.35 1.99.098-.047.03-.014.056-.026c.062-.029.124-.056.186-.083.206-.088.446-.208.726-.352.308-.163.606-.343.893-.54.302-.203.585-.434.843-.691a5.984 5.984 0 001.296-1.92 6.004 6.004 0 00.455-2.358c0-.451-.066-.877-.202-1.281a3.133 3.133 0 00-.572-1.044 2.926 2.926 0 00-1.061-.727 3.432 3.432 0 00-1.298-.252c-.405 0-.77.074-1.095.22-.31.135-.591.329-.827.572a2.385 2.385 0 00-.503.792zm7.667.877c0-.293.057-.586.167-.877.113-.293.282-.556.506-.792.227-.235.5-.428.825-.572.327-.145.69-.22 1.096-.22.45 0 .883.084 1.297.252.417.17.77.41 1.061.727.25.292.44.64.574 1.044.134.405.202.831.202 1.281a5.994 5.994 0 01-.455 2.358 6.017 6.017 0 01-1.298 1.92 5.715 5.715 0 01-.845.691 8.181 8.181 0 01-.893.54c-.28.145-.52.264-.725.352-.124.054-.248.111-.37.17l-1.348-1.99c.247-.089.52-.207.825-.352.304-.146.59-.326.86-.539.268-.214.494-.467.673-.76.181-.292.282-.628.304-1.01a2.72 2.72 0 01-1.719-.574c-.49-.38-.737-.931-.737-1.648v-.001zM94.36 279.394c.113-.291.17-.584.17-.875h.001c0-.719-.248-1.268-.74-1.649a2.731 2.731 0 00-1.718-.572c.023-.383.123-.721.303-1.013.18-.292.403-.545.673-.758.27-.214.557-.393.86-.539.27-.13.545-.248.825-.352l-1.348-1.988c-.044.022-.167.08-.37.167-.203.089-.445.208-.725.352a8.676 8.676 0 00-.893.54 5.563 5.563 0 00-.844.69 6.004 6.004 0 00-1.297 1.92 6.028 6.028 0 00-.455 2.36c-.002.435.066.867.202 1.28.122.382.317.737.573 1.045a2.92 2.92 0 001.06.725c.412.168.852.253 1.297.252a2.641 2.641 0 001.923-.792c.219-.228.39-.498.503-.793zm-7.666-.875a2.454 2.454 0 01-.673 1.67 2.606 2.606 0 01-.826.571c-.326.146-.692.22-1.096.22a3.417 3.417 0 01-1.298-.252 2.942 2.942 0 01-1.06-.726 3.094 3.094 0 01-.573-1.045 4.004 4.004 0 01-.202-1.28c0-.852.15-1.64.455-2.36a5.984 5.984 0 011.297-1.92c.247-.248.527-.477.843-.691.314-.212.612-.393.893-.54.28-.144.52-.262.724-.35l.057-.026c.169-.076.274-.123.315-.144l1.347 1.988c-.248.09-.522.208-.826.353-.303.147-.59.326-.857.538a2.956 2.956 0 00-.676.759c-.179.292-.28.63-.302 1.012.65 0 1.224.19 1.718.573.493.382.74.93.74 1.65zm249.165 56.874h-3.815l11.881-20.636h3.776l-11.842 20.636zm-3.996 1.488c-1.236 0-2.181.98-2.181 2.218s.946 2.18 2.181 2.18c1.232 0 2.217-.944 2.217-2.18a2.206 2.206 0 00-2.217-2.218zm-25.262-7.415l-1.09 1.888c.835 2.471 4.139 1.091 5.269-.871l1.815-3.124c1.345-2.29-1.634-3.961-5.994 2.107zm24.002 4.868c-.218-.58-.872-1.163-1.417-1.307l-.255.292a23.56 23.56 0 01-4.542 4.104c.47-1.411.717-3.119.983-4.965.412-2.859.872-6.049 2.285-8.985l-2.835-1.527c-.278.382-.615.853-1.001 1.392l-.001.001c-1.777 2.483-4.584 6.404-7.39 9.688.006.01.016.018.021.025a.44.44 0 01-.045-.025l-.253.292c-2.727 3.16-5.377 5.666-7.05 5.666-.834 0-1.634-.836-1.634-2.543v-1.562c2.652.327 5.45-1.418 7.23-4.504l1.016-1.743c3.522-6.03-2.217-8.03-6.068-4.504l5.375-9.337h-3.779l-10.775 18.695a2.97 2.97 0 00-.689-.457l-.256.292c-2.723 3.16-6.211 5.666-8.863 5.666-2.325 0-3.705-1.453-1.961-4.504l3.884-6.757c2.18-3.742 6.032-3.124 3.778.8l-.544.944h3.09l.545-.944c2.034-3.488.071-6.104-3.015-6.104-3.051 0-5.487 1.6-7.085 4.36l-3.718 6.38a3.057 3.057 0 01-.059-.036c-.06-.036-.119-.072-.174-.096l-.255.292c-2.724 3.16-5.375 5.666-7.047 5.666-.836 0-1.306-.58-.436-2.07l8.066-14.133h-3.78l-6.719 11.734c-2.873 2.615-5.085 4.068-5.814 3.742-.876-.37-.127-1.616.364-2.432l.048-.08.037-.062.024-.041 7.374-12.861h-3.778l-7.338 12.695c-.506.461-1.309.891-2.033 1.28-.444.238-.858.46-1.157.664.471-1.412.717-3.12.984-4.967v-.001c.412-2.858.873-6.047 2.285-8.982l-2.832-1.527c-1.563 2.143-10.283 13.698-13.698 17.693.325.472.872.945 1.416 1.308 2.143-2.47 9.338-11.734 10.682-13.514-.501 1.318-.743 2.99-.98 4.628-.469 3.237-.919 6.344-3.308 6.344-1.27 0-1.78-1.382-1.78-1.382l-2.361 1.236s.69 3.05 4.14 3.05c.334 0 .636-.03.964-.063l.092-.009a.07.07 0 00.02-.003.142.142 0 00.018-.008.1.1 0 00.015-.007.148.148 0 01.032-.014l.005-.002.003-.001.013-.001c1.92-.254 4.578-1.138 6.36-2.37-.012 1.537.916 2.478 2.5 2.478 2.068 0 4.395-1.889 6.21-3.632-.361 2.035.835 3.632 3.235 3.632 2.346 0 4.959-1.886 7.437-4.363.034 2.51 1.968 4.363 5.126 4.363 3.066 0 6.114-1.713 8.741-4.016l-2.105 3.654h3.816l4.323-7.52v3.014c0 3.232.617 4.868 3.67 4.868 3.123 0 6.721-3.341 9.845-6.975l-.007-.01c-.006-.007-.012-.015-.013-.024.014.012.031.023.047.034 1.713-1.974 3.265-4.065 4.503-5.734.311-.419.603-.812.872-1.17-.5 1.318-.741 2.988-.978 4.626-.469 3.238-.919 6.347-3.309 6.347-1.27 0-1.78-1.382-1.78-1.382l-2.362 1.236s.691 3.05 4.142 3.05c.328 0 .626-.029.952-.062l.104-.01a.108.108 0 00.047-.015c.019-.01.038-.02.058-.02 3.853-.512 7.668-3.562 10.501-6.87l.001.002zm-114.774-1.086h.183l2.76-4.722c2.288-3.925-1.344-5.705-3.997-1.2l-1.816 3.088-2.87 4.977c-2.253 3.924 2.071 4.504 3.85 1.454l.037-.073a2.465 2.465 0 01-.363-1.269c0-1.238.981-2.255 2.216-2.255zm-25.247 14.131c-.8 1.417-2.072 1.2-2.072.184 0-.98.909-2.106 3.815-3.234l-1.743 3.05zm-34.845-8.427c1.562 0 3.815-1.708 6.103-5.303l2.941-5.16c1.854-3.416-2.178-4.323-4.213-.801l-5.267 9.193c-.871 1.491-.399 2.071.436 2.071zm-5.951-20.053c1.126-1.927 2.362-2.762 3.415-2.762 1.418 0 2.071.944 2.071 2.325 0 3.524-4.364 10.833-10.172 9.881h-.763l5.449-9.444zm92.523 14.386l.254-.292.001.001c.51.218 1.163.8 1.418 1.311-3.126 3.633-6.72 6.975-9.846 6.975-3.053 0-4.178-2.577-2.58-5.376l4.904-8.538c1.636-2.798-.944-3.741-6.721 3.489l-5.776 10.063h-3.815l2.54-4.394c-1.686.93-3.554 1.45-4.934 1.45h-.835c-4.238 5.358-11.266 4.155-10.746-1.122-3.252 3.219-6.366 5.178-9.525 6.172l-2.906 4.978c-2.722 4.65-8.282 3.886-8.282.253 0-2.832 3.197-4.941 8.32-6.465l2.071-3.56c-1.709 1.524-3.778 3.05-5.595 3.05-1.882 0-2.841-1.332-2.388-3.41-2.174 1.99-4.407 3.41-6.44 3.41-3.051 0-4.177-2.576-2.579-5.376l4.904-8.534c1.635-2.799-.945-3.742-6.722 3.488l-5.776 10.063h-3.814l1.392-2.411c-1.942 1.649-3.91 2.773-5.72 2.773-1.924 0-3.088-1.015-3.268-2.469-1.817 1.489-3.706 2.469-5.232 2.469-2.675 0-3.871-1.981-3.048-4.355l-.224.213c-2.49 2.369-4.353 4.142-8.457 4.142-5.34 0-6.901-5.084-4.25-9.662l1.125-1.964c-3.05-1.598-4.758-4.505-4.758-7.518 0-2.546 1.197-5.122 3.887-7.05l1.235 2.218c-1.634 1.27-2.434 3.014-2.434 4.757 0 2.108 1.164 4.215 3.38 5.378l5.886-10.137c1.706-2.978 4.177-4.432 6.248-4.432 2.796 0 5.013 2.215 5.013 5.63 0 1.49-.473 3.233-1.526 5.086-2.979 5.195-7.557 7.267-11.59 7.267-.761 0-1.452-.077-2.142-.184l-1.055 1.852c-2.25 3.852-.689 6.431 1.89 6.431 3.675 0 5.759-2.417 8.413-5.496l.147-.171.254-.292c.271.073.568.255.828.488l3.903-6.736c1.596-2.763 4.432-4.36 6.465-4.36 2.471 0 4.106 2.216 3.961 3.814h2.143l-6.104 10.68c-.871 1.492-.399 2.072.436 2.072 1.673 0 4.325-2.507 7.048-5.667l.254-.292c.125.058.245.125.359.202l6.038-10.445h3.78l-1.417 2.469c1.888-1.962 3.596-2.834 5.231-2.834 2.107 0 3.669 2.072 2.034 4.942l-5.449 9.553c-.871 1.492-.399 2.072.436 2.072 1.672 0 4.323-2.507 7.048-5.667l.254-.292c.115.054.226.116.331.187l6.028-10.43h3.778l-7.375 12.86-.047.08-.064.106c-.49.818-1.235 2.061-.361 2.43.726.326 2.979-1.163 5.886-3.85l6.683-11.626h3.779l-10.355 17.73c2.978-1.275 5.63-3.6 8.755-7.195l.254-.291c.119.054.233.118.342.19l1.62-2.77 1.852-3.233c2.181-3.778 4.432-4.94 7.339-4.94 3.562 0 5.668 3.739 3.38 7.701l-3.56 6.14c1.889-.037 3.997-.947 5.703-2.799l.255-.292c.17.08.332.177.482.29l6.088-10.533h3.779l-1.417 2.469c1.89-1.962 3.595-2.833 5.231-2.833 2.105 0 3.671 2.071 2.035 4.941l-5.45 9.553c-.871 1.492-.4 2.072.436 2.072 1.672 0 4.325-2.507 7.047-5.667zm118.885-35.864c-2.29 3.741-4.615 5.521-6.212 5.521-.835 0-1.307-.58-.437-2.07l5.267-9.193c2.035-3.524 6.067-2.615 4.214.8h.035l-2.867 4.942zm-42.291 5.521c1.561 0 3.814-1.708 6.104-5.302l2.941-5.161c1.852-3.415-2.18-4.324-4.214-.8l-5.268 9.193c-.87 1.49-.399 2.07.437 2.07zm-33.813 8.428c-.797 1.417-2.07 1.2-2.07.184 0-.981.872-2.107 3.779-3.234l-1.709 3.05zm11.445-31.241c-1.055 0-2.29.834-3.417 2.76l-5.448 9.445h.763c9.627 2.23 14.096-12.205 8.102-12.205zm74.247 16.857l-.255.29c-2.72 3.16-5.374 5.667-7.047 5.667-.835 0-1.307-.58-.437-2.071l12.789-22.124h-3.779l-5.557 9.591c-.654-1.054-1.89-1.962-3.453-1.962-2.035 0-4.867 1.599-6.466 4.359l-3.698 6.38-.039-.023-.025-.015a1.635 1.635 0 00-.17-.094l-.255.292c-2.723 3.16-5 5.666-6.672 5.666-.837 0-1.307-.58-.438-2.07l5.45-9.555c1.637-2.87.072-4.942-2.034-4.942-1.636 0-3.34.871-5.232 2.835l1.417-2.47h-3.779l-6.037 10.447a2.657 2.657 0 00-.36-.203l-.256.292c-2.723 3.16-5.374 5.666-7.046 5.666-.835 0-1.306-.58-.436-2.07l6.103-10.682h-2.144c.146-1.598-1.488-3.815-3.96-3.815-2.035 0-4.87 1.599-6.468 4.358l-3.652 6.306-.206.234c-2.722 3.159-5.75 5.665-7.42 5.665-.837 0-1.307-.58-.437-2.07l3.778-6.611c1.307-2.29.689-3.633-.545-5.123l-2.106-2.544c-.545-.69-.545-1.453.218-2.18l-1.962-2.143c-2.144 1.927-2.325 4.069-.982 5.813l.329.436-.134.189v.001c-1.658 2.342-3.856 5.447-6.263 8.275l.038.053.039.05c.056.073.117.145.181.217-3.113 3.58-5.759 5.895-8.73 7.162l4.795-8.21h-3.778l-.399.655c-1.998 3.524-4.288 6.031-7.23 6.031-2.58 0-3.05-2.579-.8-6.43l1.055-1.852a13.6 13.6 0 002.142.181c13.443 0 19.946-17.982 8.104-17.982-2.072 0-4.544 1.454-6.25 4.432l-5.885 10.135c-2.216-1.161-3.378-3.268-3.378-5.375 0-1.743.8-3.488 2.432-4.758l-1.233-2.217c-2.69 1.926-3.888 4.504-3.888 7.047 0 3.016 1.709 5.922 4.76 7.52l-1.127 1.963c-2.652 4.578-2.18 9.663 3.162 9.663 1.598 0 2.941-.472 4.105-1.2l-.983 1.71c-5.12 1.56-8.282 3.631-8.282 6.465 0 3.632 5.56 4.396 8.282-.254l2.907-4.977c3.925-1.235 7.776-3.923 11.918-8.719a2.168 2.168 0 00-.236-.355c1.678-1.971 3.102-3.874 5.95-7.746l.507.619c.473.616.654 1.38.218 2.144l-3.997 6.937c-1.599 2.795-.472 5.374 2.58 5.374 1.899 0 4.348-1.239 6.385-3.024-.044 1.738 1.144 3.024 3.299 3.024 1.525 0 3.415-.98 5.23-2.47.183 1.454 1.347 2.47 3.27 2.47 1.81 0 3.777-1.125 5.72-2.774l-1.392 2.412h3.813l5.777-10.065c5.777-7.229 8.357-6.284 6.72-3.487l-4.903 8.538c-1.597 2.798-.473 5.376 2.578 5.376 2.01 0 3.836-1.384 5.982-3.333-.2 1.893 1.004 3.333 3.282 3.333 1.525 0 3.414-.98 5.232-2.47.182 1.455 1.345 2.47 3.269 2.47 3.125 0 6.72-3.341 9.845-6.976-.256-.504-.909-1.085-1.42-1.302zm-108.501-4.506c2.254-3.924-1.599-4.541-3.779-.799l-2.434 4.25c1.416.508 3.851.582 5.668-2.507l.545-.944zm-6.83 12.788c4.287 0 8.54-3.341 11.662-6.975-.253-.51-.908-1.09-1.417-1.308l-.253.292c-2.726 3.16-6.213 5.666-8.867 5.666-2.325 0-3.705-1.453-1.962-4.505l.363-.653c2.435 1.016 7.012.545 9.846-4.36l.545-.944c2.035-3.489.073-6.104-3.016-6.104-3.05 0-5.484 1.598-7.083 4.359l-3.679 6.313c-.038-.02-.076-.048-.112-.064l-.255.292c-2.724 3.16-5.375 5.666-7.047 5.666-.836 0-1.306-.58-.437-2.071l5.45-9.555c1.635-2.87.072-4.942-2.036-4.942-1.635 0-3.379.909-5.266 2.871l6.03-10.5h-3.778l-10.656 18.49a2.487 2.487 0 00-.432-.252l-.255.291c-2.725 3.161-5.376 5.667-7.048 5.667-.835 0-1.307-.58-.437-2.07l8.102-14.134h3.09l1.09-1.817h-3.125l3.56-6.175h-3.778l-3.56 6.175h-3.415l-1.09 1.817h3.45l-7.593 13.153c-1.598 2.799-.472 5.377 2.579 5.377 1.878 0 3.926-1.213 5.94-2.964l-1.499 2.6h3.815l5.74-9.992c5.813-7.302 8.393-6.357 6.758-3.56l-4.905 8.538c-1.598 2.798-.472 5.376 2.58 5.376 2.296 0 4.846-1.805 7.276-4.205.11 2.431 2.033 4.207 5.125 4.207zm-123.695-12.789c2.254-3.924-1.596-4.541-3.776-.799l-2.435 4.249c1.416.509 3.852.582 5.667-2.506l.544-.944zm19.343 8.392l5.268-9.191c2.034-3.526 6.067-2.617 4.213.799l-2.942 5.159c-2.288 3.595-4.543 5.304-6.104 5.304-.834 0-1.307-.581-.435-2.07v-.001zm57.76-8.392c2.254-3.924-1.596-4.541-3.776-.799l-2.435 4.249c1.416.508 3.851.582 5.666-2.506l.545-.944zm-61.584 8.727c-.627 2.24.57 4.06 3.134 4.06 1.525 0 3.415-.98 5.23-2.469.183 1.453 1.346 2.47 3.27 2.47 2.013 0 4.218-1.39 6.369-3.346-.418 2.042.539 3.346 2.4 3.346 2.073 0 4.398-1.89 6.213-3.634-.364 2.036.837 3.634 3.234 3.634 3.125 0 6.72-3.342 9.845-6.976a.717.717 0 00-.056-.088c-.015-.021-.031-.042-.044-.063 1.64-1.908 3.128-3.907 4.33-5.522v-.001h.001v-.001c.328-.441.635-.852.917-1.226-.501 1.318-.743 2.989-.98 4.628-.469 3.236-.919 6.344-3.308 6.344-1.27 0-1.78-1.382-1.78-1.382l-2.363 1.235s.69 3.052 4.142 3.052c.324 0 .618-.029.937-.061l.117-.012c.019 0 .037-.009.055-.018.018-.008.035-.017.053-.017 2.776-.367 5.529-2.056 7.913-4.209.058 2.486 1.986 4.317 5.125 4.317 4.287 0 8.538-3.341 11.662-6.976-.254-.51-.908-1.09-1.416-1.308l-.254.292c-2.725 3.16-6.213 5.667-8.863 5.667-2.326 0-3.707-1.454-1.963-4.505l.364-.654c2.432 1.016 7.01.545 9.845-4.36l.545-.943c2.034-3.489.072-6.104-3.015-6.104-3.05 0-5.487 1.598-7.083 4.358l-3.67 6.294-.016-.006-.013-.006-.019-.01c-.011-.005-.021-.011-.032-.015a.117.117 0 00-.024-.009l-.254.291a23.603 23.603 0 01-4.542 4.106c.471-1.412.718-3.12.984-4.967.413-2.858.874-6.048 2.286-8.984l-2.833-1.526c-.284.39-.629.872-1.025 1.424-1.779 2.485-4.573 6.387-7.368 9.656.019.026.04.052.062.078l.048.06-.135.153c-2.724 3.16-5.376 5.667-7.048 5.667-.835 0-1.307-.58-.436-2.07l8.065-14.135h-3.779l-6.72 11.734c-2.87 2.616-5.085 4.069-5.814 3.742-.876-.37-.125-1.618.366-2.435l.001-.002.009-.015.059-.098.039-.065 7.373-12.86h-3.778l-6.013 10.405-.034-.021a1.962 1.962 0 00-.253-.14l-.254.29c-2.725 3.16-5.376 5.667-7.048 5.667-.835 0-1.307-.58-.436-2.07l6.103-10.682h-2.144c.146-1.598-1.488-3.816-3.96-3.816-2.034 0-4.868 1.6-6.466 4.36l-3.83 6.612a2.782 2.782 0 00-.576-.363l-.254.29c-2.724 3.16-5.858 5.667-8.51 5.667-2.324 0-3.706-1.453-1.963-4.504l3.887-6.756c2.18-3.742 6.031-3.125 3.777.798l-.545.945h3.09l.544-.945c2.034-3.487.073-6.104-3.014-6.104-3.052 0-5.134 1.6-6.73 4.36l-3.756 6.443a2.404 2.404 0 00-.347-.194l-.254.29c-2.724 3.16-5.947 5.667-8.598 5.667-2.326 0-3.707-1.453-1.963-4.504l.363-.654c2.434 1.018 7.012.545 9.846-4.358l.545-.946c2.034-3.486.072-6.103-3.016-6.103-3.05 0-5.486 1.598-7.083 4.36l-3.96 6.792c-2.363 4.033-.327 7.738 4.14 7.738 3.329 0 6.013-2.015 8.788-4.617-.098 2.637 1.858 4.617 5.121 4.617 3.088.006 5.8-1.728 8.441-4.054zm-33.821-19.191l-3.051 5.231v.001c3.851-.073 5.996-.909 7.446-3.633 1.89-3.561-1.635-6.356-4.395-1.599zm-7.119 22.451c-2.253 0-4.033-.508-5.45-1.306.654-.764 1.307-1.709 1.89-2.689l6.356-11.008 1.017.108c8.866 1.855 5.341 14.895-3.813 14.895zm9.337-15.475c7.628-2.581 8.209-12.135.689-12.135-2.071 0-4.541 1.453-6.248 4.432L99.94 298.872c-.42.755-.906 1.472-1.452 2.141-2.616-3.595-1.853-8.971 1.816-11.334l-1.527-1.926c-7.92 5.05-5.594 19.617 7.63 19.617 11.3.002 16.53-13.546 9.265-18.379z" fill="#fff"/></svg>6 341.28C188.374 341.28 187.415 339.948 187.868 337.87C185.694 339.86 183.461 341.28 181.428 341.28C178.377 341.28 177.251 338.704 178.849 335.904L183.753 327.37C185.388 324.571 182.808 323.628 177.031 330.858L171.255 340.921H167.441L168.833 338.51C166.891 340.159 164.923 341.283 163.113 341.283C161.189 341.283 160.025 340.268 159.845 338.814C158.028 340.303 156.139 341.283 154.613 341.283C151.938 341.283 150.742 339.302 151.565 336.928L151.341 337.141L151.341 337.141C148.851 339.51 146.988 341.283 142.884 341.283C137.544 341.283 135.983 336.199 138.634 331.621L139.759 329.657C136.709 328.059 135.001 325.152 135.001 322.139C135.001 319.593 136.198 317.017 138.888 315.089L140.123 317.307C138.489 318.577 137.689 320.321 137.689 322.064C137.689 324.172 138.853 326.279 141.069 327.442L146.955 317.305C148.661 314.327 151.132 312.873 153.203 312.873C155.999 312.873 158.216 315.088 158.216 318.503C158.216 319.993 157.743 321.736 156.69 323.589C153.711 328.784 149.133 330.856 145.1 330.856C144.339 330.856 143.648 330.779 142.958 330.672L141.903 332.524C139.653 336.376 141.214 338.955 143.793 338.955C147.468 338.955 149.552 336.538 152.206 333.459L152.353 333.288L152.607 332.996C152.878 333.069 153.175 333.251 153.435 333.484L157.338 326.748C158.934 323.985 161.77 322.388 163.803 322.388C166.274 322.388 167.909 324.604 167.764 326.202H169.907L163.803 336.882C162.932 338.374 163.404 338.954 164.239 338.954C165.912 338.954 168.564 336.447 171.287 333.287L171.541 332.995C171.666 333.053 171.786 333.12 171.9 333.197L177.938 322.752H181.718L180.301 325.221C182.189 323.259 183.897 322.387 185.532 322.387C187.639 322.387 189.201 324.459 187.566 327.329L182.117 336.882C181.246 338.374 181.718 338.954 182.553 338.954C184.225 338.954 186.876 336.447 189.601 333.287L189.855 332.995C189.97 333.049 190.081 333.111 190.186 333.182L196.214 322.752H199.992L192.617 335.612L192.57 335.692L192.506 335.798C192.016 336.616 191.271 337.859 192.145 338.228C192.871 338.554 195.124 337.065 198.031 334.378L204.714 322.752H208.493L198.138 340.482C201.116 339.207 203.768 336.882 206.893 333.287L207.147 332.996C207.266 333.05 207.38 333.114 207.489 333.186L209.109 330.416L210.961 327.183C213.142 323.405 215.393 322.243 218.3 322.243C221.862 322.243 223.968 325.982 221.68 329.944L218.12 336.084C220.009 336.047 222.117 335.137 223.823 333.285L224.078 332.993C224.248 333.073 224.41 333.17 224.56 333.283L230.648 322.75H234.427L233.01 325.219C234.9 323.257 236.605 322.386 238.241 322.386C240.346 322.386 241.912 324.457 240.276 327.327L234.826 336.88C233.955 338.372 234.426 338.952 235.262 338.952C236.934 338.952 239.587 336.445 242.309 333.285ZM361.194 297.421C358.904 301.162 356.579 302.942 354.982 302.942C354.147 302.942 353.675 302.362 354.545 300.872L359.812 291.679C361.847 288.155 365.879 289.064 364.026 292.479H364.061L361.194 297.421ZM318.903 302.942C320.464 302.942 322.717 301.234 325.007 297.64L327.948 292.479C329.8 289.064 325.768 288.155 323.734 291.679L318.466 300.872C317.596 302.362 318.067 302.942 318.903 302.942ZM285.09 311.37C284.293 312.787 283.02 312.57 283.02 311.554C283.02 310.573 283.892 309.447 286.799 308.32L285.09 311.37ZM296.535 280.129C295.48 280.129 294.245 280.963 293.118 282.889L287.67 292.334H288.433C298.06 294.564 302.529 280.129 296.535 280.129ZM370.782 296.986L370.527 297.276C367.807 300.436 365.153 302.943 363.48 302.943C362.645 302.943 362.173 302.363 363.043 300.872L375.832 278.748H372.053L366.496 288.339C365.842 287.285 364.606 286.377 363.043 286.377C361.008 286.377 358.176 287.976 356.577 290.736L352.879 297.116C352.866 297.109 352.853 297.101 352.84 297.093L352.815 297.078C352.757 297.043 352.699 297.008 352.645 296.984L352.39 297.276C349.667 300.436 347.39 302.942 345.718 302.942C344.881 302.942 344.411 302.362 345.28 300.872L350.73 291.317C352.367 288.447 350.802 286.375 348.696 286.375C347.06 286.375 345.356 287.246 343.464 289.21L344.881 286.74H341.102L335.065 297.187C334.95 297.11 334.83 297.042 334.705 296.984L334.449 297.276C331.726 300.436 329.075 302.942 327.403 302.942C326.568 302.942 326.097 302.362 326.967 300.872L333.07 290.19H330.926C331.072 288.592 329.438 286.375 326.966 286.375C324.931 286.375 322.096 287.974 320.498 290.733L316.846 297.039L316.64 297.273C313.918 300.432 310.89 302.938 309.22 302.938C308.383 302.938 307.913 302.358 308.783 300.868L312.561 294.257C313.868 291.967 313.25 290.624 312.016 289.134L309.91 286.59C309.365 285.9 309.365 285.137 310.128 284.41L308.166 282.267C306.022 284.194 305.841 286.336 307.184 288.08L307.513 288.516L307.379 288.705L307.379 288.706C305.721 291.048 303.523 294.153 301.116 296.981C301.128 296.999 301.141 297.016 301.154 297.034C301.167 297.051 301.18 297.068 301.193 297.084C301.249 297.157 301.31 297.229 301.374 297.301C298.261 300.881 295.615 303.196 292.644 304.463L297.439 296.253H293.661L293.262 296.908C291.264 300.432 288.974 302.939 286.032 302.939C283.452 302.939 282.982 300.36 285.232 296.509L286.287 294.657C286.995 294.774 287.711 294.834 288.429 294.838C301.872 294.838 308.375 276.856 296.533 276.856C294.461 276.856 291.989 278.31 290.283 281.288L284.398 291.423C282.182 290.262 281.02 288.155 281.02 286.048C281.02 284.305 281.82 282.56 283.452 281.29L282.219 279.073C279.529 280.999 278.331 283.577 278.331 286.12C278.331 289.136 280.04 292.042 283.091 293.64L281.964 295.603C279.312 300.181 279.784 305.266 285.126 305.266C286.724 305.266 288.067 304.794 289.231 304.066L288.248 305.776C283.128 307.336 279.966 309.407 279.966 312.241C279.966 315.873 285.526 316.637 288.248 311.987L291.155 307.01C295.08 305.775 298.931 303.087 303.073 298.291C303.006 298.165 302.927 298.046 302.837 297.936C304.515 295.965 305.939 294.062 308.787 290.19L309.294 290.809C309.767 291.425 309.948 292.189 309.512 292.953L305.515 299.89C303.916 302.685 305.043 305.264 308.095 305.264C309.994 305.264 312.443 304.025 314.48 302.24C314.436 303.978 315.624 305.264 317.779 305.264C319.304 305.264 321.194 304.284 323.009 302.794C323.192 304.248 324.356 305.264 326.279 305.264C328.089 305.264 330.056 304.139 331.999 302.49L330.607 304.902H334.42L340.197 294.837C345.974 287.608 348.554 288.553 346.917 291.35L342.014 299.888C340.417 302.686 341.541 305.264 344.592 305.264C346.602 305.264 348.428 303.88 350.574 301.931C350.374 303.824 351.578 305.264 353.856 305.264C355.381 305.264 357.27 304.284 359.088 302.794C359.27 304.249 360.433 305.264 362.357 305.264C365.482 305.264 369.077 301.923 372.202 298.288C371.946 297.784 371.293 297.203 370.782 296.986ZM262.281 292.48C264.535 288.556 260.682 287.939 258.502 291.681L256.068 295.931C257.484 296.439 259.919 296.513 261.736 293.424L262.281 292.48ZM255.451 305.268C259.738 305.268 263.991 301.927 267.113 298.293C266.86 297.783 266.205 297.203 265.696 296.985L265.443 297.277C262.717 300.437 259.23 302.943 256.576 302.943C254.251 302.943 252.871 301.49 254.614 298.438L254.977 297.785C257.412 298.801 261.989 298.33 264.823 293.425L265.368 292.481C267.403 288.992 265.441 286.377 262.352 286.377C259.302 286.377 256.868 287.975 255.269 290.736L251.59 297.049C251.552 297.029 251.514 297.001 251.478 296.985L251.223 297.277C248.499 300.437 245.848 302.943 244.176 302.943C243.34 302.943 242.87 302.363 243.739 300.872L249.189 291.317C250.824 288.447 249.261 286.375 247.153 286.375C245.518 286.375 243.774 287.284 241.887 289.246L247.917 278.746H244.139L233.483 297.236C233.348 297.138 233.203 297.053 233.051 296.984L232.796 297.275C230.071 300.436 227.42 302.942 225.748 302.942C224.913 302.942 224.441 302.362 225.311 300.872L233.413 286.738H236.503L237.593 284.921H234.468L238.028 278.746H234.25L230.69 284.921H227.275L226.185 286.738H229.635L222.042 299.891C220.444 302.69 221.57 305.268 224.621 305.268C226.499 305.268 228.547 304.055 230.561 302.304L229.062 304.904H232.877L238.617 294.912C244.43 287.61 247.01 288.555 245.375 291.352L240.47 299.89C238.872 302.688 239.998 305.266 243.05 305.266C245.346 305.266 247.896 303.461 250.326 301.061C250.436 303.492 252.359 305.268 255.451 305.268ZM131.756 292.479C134.01 288.555 130.16 287.938 127.98 291.68L125.545 295.929C126.961 296.438 129.397 296.511 131.212 293.423L131.756 292.479ZM151.099 300.871L156.367 291.68C158.401 288.154 162.434 289.063 160.58 292.479L157.638 297.638C155.35 301.233 153.095 302.942 151.534 302.942C150.7 302.942 150.227 302.361 151.099 300.872V300.871ZM208.859 292.479C211.113 288.555 207.263 287.938 205.083 291.68L202.648 295.929C204.064 296.437 206.499 296.511 208.314 293.423L208.859 292.479ZM147.275 301.206C146.648 303.446 147.845 305.266 150.409 305.266C151.934 305.266 153.824 304.286 155.639 302.797C155.822 304.25 156.985 305.267 158.909 305.267C160.922 305.267 163.127 303.877 165.278 301.921C164.86 303.963 165.817 305.267 167.678 305.267C169.751 305.267 172.076 303.377 173.891 301.633C173.527 303.669 174.728 305.267 177.125 305.267C180.25 305.267 183.845 301.925 186.97 298.291C186.955 298.262 186.935 298.232 186.914 298.203C186.899 298.182 186.883 298.161 186.87 298.14C188.51 296.232 189.998 294.233 191.2 292.618L191.2 292.618L191.2 292.617L191.201 292.617L191.201 292.616C191.529 292.175 191.836 291.764 192.118 291.39C191.617 292.708 191.375 294.379 191.138 296.018V296.018C190.669 299.254 190.219 302.362 187.83 302.362C186.56 302.362 186.05 300.98 186.05 300.98L183.687 302.215C183.687 302.215 184.377 305.267 187.829 305.267C188.153 305.267 188.447 305.238 188.766 305.206L188.883 305.194C188.902 305.194 188.92 305.185 188.938 305.176C188.956 305.168 188.973 305.159 188.991 305.159C191.767 304.792 194.52 303.103 196.904 300.95C196.962 303.436 198.89 305.267 202.029 305.267C206.316 305.267 210.567 301.926 213.691 298.291C213.437 297.781 212.783 297.201 212.275 296.983L212.021 297.275C209.296 300.435 205.808 302.942 203.158 302.942C200.832 302.942 199.451 301.488 201.195 298.437L201.559 297.783C203.991 298.799 208.569 298.328 211.404 293.423L211.949 292.48C213.983 288.991 212.021 286.376 208.934 286.376C205.884 286.376 203.447 287.974 201.851 290.734L198.181 297.028C198.176 297.026 198.17 297.024 198.165 297.022C198.16 297.02 198.156 297.018 198.152 297.016L198.133 297.006L198.133 297.006C198.122 297.001 198.112 296.995 198.101 296.991C198.093 296.987 198.085 296.984 198.077 296.982L197.823 297.273C196.494 298.833 194.967 300.213 193.281 301.379C193.752 299.967 193.999 298.259 194.265 296.412C194.678 293.554 195.139 290.364 196.551 287.428L193.718 285.902C193.434 286.292 193.089 286.774 192.693 287.326L192.693 287.326C190.914 289.811 188.12 293.713 185.325 296.982C185.344 297.008 185.365 297.034 185.387 297.06C185.403 297.08 185.42 297.1 185.435 297.12L185.3 297.273C182.576 300.433 179.924 302.94 178.252 302.94C177.417 302.94 176.945 302.36 177.816 300.87L185.881 286.735H182.102L175.382 298.469C172.512 301.085 170.297 302.538 169.568 302.211C168.692 301.841 169.443 300.593 169.934 299.776L169.935 299.774L169.944 299.759C169.965 299.726 169.984 299.693 170.003 299.661C170.016 299.639 170.029 299.617 170.042 299.596L177.415 286.736H173.637L167.624 297.141L167.59 297.12C167.504 297.067 167.418 297.014 167.337 296.98L167.083 297.27C164.358 300.43 161.707 302.937 160.035 302.937C159.2 302.937 158.728 302.357 159.599 300.867L165.702 290.185H163.558C163.704 288.587 162.07 286.369 159.598 286.369C157.564 286.369 154.73 287.969 153.132 290.729L149.302 297.341C149.126 297.197 148.932 297.075 148.726 296.978L148.472 297.268C145.748 300.428 142.614 302.935 139.962 302.935C137.638 302.935 136.256 301.482 137.999 298.431L141.886 291.675C144.066 287.933 147.917 288.55 145.663 292.473L145.118 293.418H148.208L148.752 292.473C150.786 288.986 148.825 286.369 145.738 286.369C142.686 286.369 140.604 287.969 139.008 290.729L135.252 297.172C135.142 297.098 135.026 297.033 134.905 296.978L134.651 297.268C131.927 300.428 128.704 302.935 126.053 302.935C123.727 302.935 122.346 301.482 124.09 298.431L124.453 297.777C126.887 298.795 131.465 298.322 134.299 293.419L134.844 292.473C136.878 288.987 134.916 286.37 131.828 286.37C128.778 286.37 126.342 287.968 124.745 290.73L120.785 297.522C118.422 301.555 120.458 305.26 124.925 305.26C128.254 305.26 130.938 303.245 133.713 300.643C133.615 303.28 135.571 305.26 138.834 305.26C141.922 305.266 144.634 303.532 147.275 301.206ZM113.454 282.015L110.403 287.246V287.247C114.254 287.174 116.399 286.338 117.849 283.614C119.739 280.053 116.214 277.258 113.454 282.015ZM106.335 304.466C104.082 304.466 102.302 303.958 100.885 303.16C101.539 302.396 102.192 301.451 102.775 300.471L109.131 289.463L110.148 289.571C119.014 291.426 115.489 304.466 106.335 304.466ZM115.672 288.991C123.3 286.41 123.881 276.856 116.361 276.856C114.29 276.856 111.82 278.309 110.113 281.288L99.94 298.872C99.5203 299.627 99.0343 300.344 98.488 301.013C95.872 297.418 96.635 292.042 100.304 289.679L98.777 287.753C90.857 292.803 93.183 307.37 106.407 307.37C117.707 307.372 122.937 293.824 115.672 288.991Z" fill="white"/>
</svg>
